<svg xmlns="http://www.w3.org/2000/svg" viewBox="0 0 64 64">
  <circle cx="32" cy="32" r="32" fill="#ecfccb"/>
  <path d="M32 46 V26" stroke="#4d7c4a" stroke-width="4" stroke-linecap="round"/>
  <path d="M32 38 Q22 34 20 26" stroke="#5fa557" stroke-width="4" fill="none" stroke-linecap="round"/>
  <path d="M32 34 Q42 30 44 22" stroke="#5fa557" stroke-width="4" fill="none" stroke-linecap="round"/>
  <g>
    <ellipse cx="32" cy="18" rx="6" ry="10" fill="#fb923c" transform="rotate(0 32 18)"/>
    <ellipse cx="32" cy="18" rx="6" ry="10" fill="#fb923c" transform="rotate(60 32 18)"/>
    <ellipse cx="32" cy="18" rx="6" ry="10" fill="#fb923c" transform="rotate(120 32 18)"/>
    <ellipse cx="32" cy="18" rx="6" ry="10" fill="#fb923c" transform="rotate(180 32 18)"/>
    <ellipse cx="32" cy="18" rx="6" ry="10" fill="#fb923c" transform="rotate(240 32 18)"/>
    <ellipse cx="32" cy="18" rx="6" ry="10" fill="#fb923c" transform="rotate(300 32 18)"/>
    <circle cx="32" cy="18" r="5" fill="#facc15"/>
  </g>
</svg>
